ISO-10303-21;
HEADER;
/* Generated by software containing ST-Developer
 * from STEP Tools, Inc. (www.steptools.com)
 */

FILE_DESCRIPTION(
/* description */ (''),
/* implementation_level */ '2;1');

FILE_NAME(
/* name */
'C:/Users/bodhe/OneDrive - Obvious Innovations LLC/Documents/Soberton
Parts/WST-0906T.step',
/* time_stamp */ '2022-03-14T19:25:39-05:00',
/* author */ (''),
/* organization */ (''),
/* preprocessor_version */ 'ST-DEVELOPER v18.1',
/* originating_system */ 'Autodesk Translation Framework v10.13.0.1454',

/* authorisation */ '');

FILE_SCHEMA (('AUTOMOTIVE_DESIGN { 1 0 10303 214 3 1 1 }'));
ENDSEC;

DATA;
#10=MECHANICAL_DESIGN_GEOMETRIC_PRESENTATION_REPRESENTATION('',(#13),#808);
#11=SHAPE_REPRESENTATION_RELATIONSHIP('SRR','None',#815,#12);
#12=ADVANCED_BREP_SHAPE_REPRESENTATION('',(#464),#807);
#13=STYLED_ITEM('',(#824),#464);
#14=ORIENTED_CLOSED_SHELL('',*,#463,.F.);
#15=FACE_BOUND('',#91,.T.);
#16=FACE_BOUND('',#92,.T.);
#17=FACE_BOUND('',#93,.T.);
#18=FACE_BOUND('',#94,.T.);
#19=FACE_BOUND('',#96,.T.);
#20=FACE_BOUND('',#97,.T.);
#21=FACE_BOUND('',#107,.T.);
#22=FACE_BOUND('',#108,.T.);
#23=FACE_BOUND('',#114,.T.);
#24=PLANE('',#481);
#25=PLANE('',#482);
#26=PLANE('',#483);
#27=PLANE('',#487);
#28=PLANE('',#491);
#29=PLANE('',#492);
#30=PLANE('',#493);
#31=PLANE('',#497);
#32=PLANE('',#501);
#33=PLANE('',#502);
#34=PLANE('',#505);
#35=PLANE('',#506);
#36=PLANE('',#507);
#37=PLANE('',#511);
#38=PLANE('',#515);
#39=PLANE('',#519);
#40=PLANE('',#522);
#41=PLANE('',#525);
#42=PLANE('',#526);
#43=PLANE('',#530);
#44=PLANE('',#531);
#45=FACE_OUTER_BOUND('',#77,.T.);
#46=FACE_OUTER_BOUND('',#78,.T.);
#47=FACE_OUTER_BOUND('',#79,.T.);
#48=FACE_OUTER_BOUND('',#80,.T.);
#49=FACE_OUTER_BOUND('',#81,.T.);
#50=FACE_OUTER_BOUND('',#82,.T.);
#51=FACE_OUTER_BOUND('',#83,.T.);
#52=FACE_OUTER_BOUND('',#84,.T.);
#53=FACE_OUTER_BOUND('',#85,.T.);
#54=FACE_OUTER_BOUND('',#86,.T.);
#55=FACE_OUTER_BOUND('',#87,.T.);
#56=FACE_OUTER_BOUND('',#88,.T.);
#57=FACE_OUTER_BOUND('',#89,.T.);
#58=FACE_OUTER_BOUND('',#90,.T.);
#59=FACE_OUTER_BOUND('',#95,.T.);
#60=FACE_OUTER_BOUND('',#98,.T.);
#61=FACE_OUTER_BOUND('',#99,.T.);
#62=FACE_OUTER_BOUND('',#100,.T.);
#63=FACE_OUTER_BOUND('',#101,.T.);
#64=FACE_OUTER_BOUND('',#102,.T.);
#65=FACE_OUTER_BOUND('',#103,.T.);
#66=FACE_OUTER_BOUND('',#104,.T.);
#67=FACE_OUTER_BOUND('',#105,.T.);
#68=FACE_OUTER_BOUND('',#106,.T.);
#69=FACE_OUTER_BOUND('',#109,.T.);
#70=FACE_OUTER_BOUND('',#110,.T.);
#71=FACE_OUTER_BOUND('',#111,.T.);
#72=FACE_OUTER_BOUND('',#112,.T.);
#73=FACE_OUTER_BOUND('',#113,.T.);
#74=FACE_OUTER_BOUND('',#115,.T.);
#75=FACE_OUTER_BOUND('',#116,.T.);
#76=FACE_OUTER_BOUND('',#117,.T.);
#77=EDGE_LOOP('',(#305,#306,#307,#308));
#78=EDGE_LOOP('',(#309,#310,#311,#312));
#79=EDGE_LOOP('',(#313,#314,#315,#316));
#80=EDGE_LOOP('',(#317,#318,#319,#320));
#81=EDGE_LOOP('',(#321,#322,#323,#324));
#82=EDGE_LOOP('',(#325,#326,#327,#328));
#83=EDGE_LOOP('',(#329,#330,#331,#332));
#84=EDGE_LOOP('',(#333,#334,#335,#336));
#85=EDGE_LOOP('',(#337,#338,#339,#340));
#86=EDGE_LOOP('',(#341,#342,#343,#344));
#87=EDGE_LOOP('',(#345,#346,#347,#348));
#88=EDGE_LOOP('',(#349,#350,#351,#352));
#89=EDGE_LOOP('',(#353,#354,#355,#356));
#90=EDGE_LOOP('',(#357));
#91=EDGE_LOOP('',(#358,#359,#360));
#92=EDGE_LOOP('',(#361,#362,#363));
#93=EDGE_LOOP('',(#364,#365,#366));
#94=EDGE_LOOP('',(#367,#368,#369));
#95=EDGE_LOOP('',(#370));
#96=EDGE_LOOP('',(#371));
#97=EDGE_LOOP('',(#372));
#98=EDGE_LOOP('',(#373,#374,#375));
#99=EDGE_LOOP('',(#376,#377,#378));
#100=EDGE_LOOP('',(#379,#380,#381));
#101=EDGE_LOOP('',(#382,#383,#384,#385));
#102=EDGE_LOOP('',(#386));
#103=EDGE_LOOP('',(#387,#388,#389,#390));
#104=EDGE_LOOP('',(#391));
#105=EDGE_LOOP('',(#392,#393,#394,#395));
#106=EDGE_LOOP('',(#396));
#107=EDGE_LOOP('',(#397));
#108=EDGE_LOOP('',(#398));
#109=EDGE_LOOP('',(#399,#400,#401,#402));
#110=EDGE_LOOP('',(#403));
#111=EDGE_LOOP('',(#404,#405,#406,#407));
#112=EDGE_LOOP('',(#408,#409,#410));
#113=EDGE_LOOP('',(#411));
#114=EDGE_LOOP('',(#412));
#115=EDGE_LOOP('',(#413,#414,#415,#416));
#116=EDGE_LOOP('',(#417));
#117=EDGE_LOOP('',(#418));
#118=LINE('',#683,#153);
#119=LINE('',#686,#154);
#120=LINE('',#689,#155);
#121=LINE('',#691,#156);
#122=LINE('',#692,#157);
#123=LINE('',#694,#158);
#124=LINE('',#695,#159);
#125=LINE('',#699,#160);
#126=LINE('',#701,#161);
#127=LINE('',#703,#162);
#128=LINE('',#704,#163);
#129=LINE('',#709,#164);
#130=LINE('',#712,#165);
#131=LINE('',#713,#166);
#132=LINE('',#719,#167);
#133=LINE('',#722,#168);
#134=LINE('',#725,#169);
#135=LINE('',#727,#170);
#136=LINE('',#728,#171);
#137=LINE('',#730,#172);
#138=LINE('',#731,#173);
#139=LINE('',#735,#174);
#140=LINE('',#737,#175);
#141=LINE('',#739,#176);
#142=LINE('',#740,#177);
#143=LINE('',#745,#178);
#144=LINE('',#748,#179);
#145=LINE('',#749,#180);
#146=LINE('',#754,#181);
#147=LINE('',#769,#182);
#148=LINE('',#776,#183);
#149=LINE('',#783,#184);
#150=LINE('',#788,#185);
#151=LINE('',#793,#186);
#152=LINE('',#801,#187);
#153=VECTOR('',#538,10.);
#154=VECTOR('',#541,10.);
#155=VECTOR('',#544,10.);
#156=VECTOR('',#545,10.);
#157=VECTOR('',#546,10.);
#158=VECTOR('',#549,10.);
#159=VECTOR('',#550,10.);
#160=VECTOR('',#553,10.);
#161=VECTOR('',#554,10.);
#162=VECTOR('',#555,10.);
#163=VECTOR('',#556,10.);
#164=VECTOR('',#561,10.);
#165=VECTOR('',#566,10.);
#166=VECTOR('',#567,10.);
#167=VECTOR('',#572,10.);
#168=VECTOR('',#575,10.);
#169=VECTOR('',#578,10.);
#170=VECTOR('',#579,10.);
#171=VECTOR('',#580,10.);
#172=VECTOR('',#583,10.);
#173=VECTOR('',#584,10.);
#174=VECTOR('',#587,10.);
#175=VECTOR('',#588,10.);
#176=VECTOR('',#589,10.);
#177=VECTOR('',#590,10.);
#178=VECTOR('',#595,10.);
#179=VECTOR('',#600,10.);
#180=VECTOR('',#601,10.);
#181=VECTOR('',#606,0.6001532144087);
#182=VECTOR('',#627,0.3);
#183=VECTOR('',#636,0.3);
#184=VECTOR('',#645,4.1);
#185=VECTOR('',#652,0.9);
#186=VECTOR('',#659,4.6);
#187=VECTOR('',#670,0.0762996269445437);
#188=CIRCLE('',#479,0.499999999999999);
#189=CIRCLE('',#480,0.499999999999999);
#190=CIRCLE('',#485,0.499999999999999);
#191=CIRCLE('',#486,0.499999999999999);
#192=CIRCLE('',#489,0.499999999999999);
#193=CIRCLE('',#490,0.499999999999999);
#194=CIRCLE('',#495,0.499999999999999);
#195=CIRCLE('',#496,0.499999999999999);
#196=CIRCLE('',#499,0.6001532144087);
#197=CIRCLE('',#500,0.6001532144087);
#198=CIRCLE('',#503,4.6);
#199=CIRCLE('',#504,0.9);
#200=CIRCLE('',#509,0.3);
#201=CIRCLE('',#510,0.3);
#202=CIRCLE('',#513,0.3);
#203=CIRCLE('',#514,0.3);
#204=CIRCLE('',#517,4.1);
#205=CIRCLE('',#518,4.1);
#206=CIRCLE('',#521,0.9);
#207=CIRCLE('',#524,4.6);
#208=CIRCLE('',#528,0.0762996269445437);
#209=CIRCLE('',#529,0.0762996269445437);
#210=VERTEX_POINT('',#679);
#211=VERTEX_POINT('',#680);
#212=VERTEX_POINT('',#682);
#213=VERTEX_POINT('',#684);
#214=VERTEX_POINT('',#688);
#215=VERTEX_POINT('',#690);
#216=VERTEX_POINT('',#697);
#217=VERTEX_POINT('',#698);
#218=VERTEX_POINT('',#700);
#219=VERTEX_POINT('',#702);
#220=VERTEX_POINT('',#706);
#221=VERTEX_POINT('',#708);
#222=VERTEX_POINT('',#715);
#223=VERTEX_POINT('',#716);
#224=VERTEX_POINT('',#718);
#225=VERTEX_POINT('',#720);
#226=VERTEX_POINT('',#724);
#227=VERTEX_POINT('',#726);
#228=VERTEX_POINT('',#733);
#229=VERTEX_POINT('',#734);
#230=VERTEX_POINT('',#736);
#231=VERTEX_POINT('',#738);
#232=VERTEX_POINT('',#742);
#233=VERTEX_POINT('',#744);
#234=VERTEX_POINT('',#751);
#235=VERTEX_POINT('',#753);
#236=VERTEX_POINT('',#758);
#237=VERTEX_POINT('',#760);
#238=VERTEX_POINT('',#766);
#239=VERTEX_POINT('',#768);
#240=VERTEX_POINT('',#773);
#241=VERTEX_POINT('',#775);
#242=VERTEX_POINT('',#780);
#243=VERTEX_POINT('',#782);
#244=VERTEX_POINT('',#787);
#245=VERTEX_POINT('',#792);
#246=VERTEX_POINT('',#798);
#247=VERTEX_POINT('',#800);
#248=EDGE_CURVE('',#210,#211,#188,.T.);
#249=EDGE_CURVE('',#210,#212,#118,.T.);
#250=EDGE_CURVE('',#212,#213,#189,.T.);
#251=EDGE_CURVE('',#211,#213,#119,.T.);
#252=EDGE_CURVE('',#214,#210,#120,.T.);
#253=EDGE_CURVE('',#214,#215,#121,.T.);
#254=EDGE_CURVE('',#215,#212,#122,.T.);
#255=EDGE_CURVE('',#211,#214,#123,.T.);
#256=EDGE_CURVE('',#213,#215,#124,.T.);
#257=EDGE_CURVE('',#216,#217,#125,.T.);
#258=EDGE_CURVE('',#216,#218,#126,.T.);
#259=EDGE_CURVE('',#218,#219,#127,.T.);
#260=EDGE_CURVE('',#217,#219,#128,.T.);
#261=EDGE_CURVE('',#220,#216,#190,.T.);
#262=EDGE_CURVE('',#220,#221,#129,.T.);
#263=EDGE_CURVE('',#221,#218,#191,.T.);
#264=EDGE_CURVE('',#217,#220,#130,.T.);
#265=EDGE_CURVE('',#219,#221,#131,.T.);
#266=EDGE_CURVE('',#222,#223,#192,.T.);
#267=EDGE_CURVE('',#222,#224,#132,.T.);
#268=EDGE_CURVE('',#224,#225,#193,.T.);
#269=EDGE_CURVE('',#223,#225,#133,.T.);
#270=EDGE_CURVE('',#226,#222,#134,.T.);
#271=EDGE_CURVE('',#226,#227,#135,.T.);
#272=EDGE_CURVE('',#227,#224,#136,.T.);
#273=EDGE_CURVE('',#223,#226,#137,.T.);
#274=EDGE_CURVE('',#225,#227,#138,.T.);
#275=EDGE_CURVE('',#228,#229,#139,.T.);
#276=EDGE_CURVE('',#228,#230,#140,.T.);
#277=EDGE_CURVE('',#230,#231,#141,.T.);
#278=EDGE_CURVE('',#229,#231,#142,.T.);
#279=EDGE_CURVE('',#232,#228,#194,.T.);
#280=EDGE_CURVE('',#232,#233,#143,.T.);
#281=EDGE_CURVE('',#233,#230,#195,.T.);
#282=EDGE_CURVE('',#229,#232,#144,.T.);
#283=EDGE_CURVE('',#231,#233,#145,.T.);
#284=EDGE_CURVE('',#234,#234,#196,.T.);
#285=EDGE_CURVE('',#234,#235,#146,.T.);
#286=EDGE_CURVE('',#235,#235,#197,.T.);
#287=EDGE_CURVE('',#236,#236,#198,.T.);
#288=EDGE_CURVE('',#237,#237,#199,.T.);
#289=EDGE_CURVE('',#238,#238,#200,.T.);
#290=EDGE_CURVE('',#238,#239,#147,.T.);
#291=EDGE_CURVE('',#239,#239,#201,.T.);
#292=EDGE_CURVE('',#240,#240,#202,.T.);
#293=EDGE_CURVE('',#240,#241,#148,.T.);
#294=EDGE_CURVE('',#241,#241,#203,.T.);
#295=EDGE_CURVE('',#242,#242,#204,.T.);
#296=EDGE_CURVE('',#242,#243,#149,.T.);
#297=EDGE_CURVE('',#243,#243,#205,.T.);
#298=EDGE_CURVE('',#237,#244,#150,.T.);
#299=EDGE_CURVE('',#244,#244,#206,.T.);
#300=EDGE_CURVE('',#236,#245,#151,.T.);
#301=EDGE_CURVE('',#245,#245,#207,.T.);
#302=EDGE_CURVE('',#246,#246,#208,.T.);
#303=EDGE_CURVE('',#246,#247,#152,.T.);
#304=EDGE_CURVE('',#247,#247,#209,.T.);
#305=ORIENTED_EDGE('',*,*,#248,.F.);
#306=ORIENTED_EDGE('',*,*,#249,.T.);
#307=ORIENTED_EDGE('',*,*,#250,.T.);
#308=ORIENTED_EDGE('',*,*,#251,.F.);
#309=ORIENTED_EDGE('',*,*,#252,.F.);
#310=ORIENTED_EDGE('',*,*,#253,.T.);
#311=ORIENTED_EDGE('',*,*,#254,.T.);
#312=ORIENTED_EDGE('',*,*,#249,.F.);
#313=ORIENTED_EDGE('',*,*,#255,.F.);
#314=ORIENTED_EDGE('',*,*,#251,.T.);
#315=ORIENTED_EDGE('',*,*,#256,.T.);
#316=ORIENTED_EDGE('',*,*,#253,.F.);
#317=ORIENTED_EDGE('',*,*,#257,.F.);
#318=ORIENTED_EDGE('',*,*,#258,.T.);
#319=ORIENTED_EDGE('',*,*,#259,.T.);
#320=ORIENTED_EDGE('',*,*,#260,.F.);
#321=ORIENTED_EDGE('',*,*,#261,.F.);
#322=ORIENTED_EDGE('',*,*,#262,.T.);
#323=ORIENTED_EDGE('',*,*,#263,.T.);
#324=ORIENTED_EDGE('',*,*,#258,.F.);
#325=ORIENTED_EDGE('',*,*,#264,.F.);
#326=ORIENTED_EDGE('',*,*,#260,.T.);
#327=ORIENTED_EDGE('',*,*,#265,.T.);
#328=ORIENTED_EDGE('',*,*,#262,.F.);
#329=ORIENTED_EDGE('',*,*,#266,.F.);
#330=ORIENTED_EDGE('',*,*,#267,.T.);
#331=ORIENTED_EDGE('',*,*,#268,.T.);
#332=ORIENTED_EDGE('',*,*,#269,.F.);
#333=ORIENTED_EDGE('',*,*,#270,.F.);
#334=ORIENTED_EDGE('',*,*,#271,.T.);
#335=ORIENTED_EDGE('',*,*,#272,.T.);
#336=ORIENTED_EDGE('',*,*,#267,.F.);
#337=ORIENTED_EDGE('',*,*,#273,.F.);
#338=ORIENTED_EDGE('',*,*,#269,.T.);
#339=ORIENTED_EDGE('',*,*,#274,.T.);
#340=ORIENTED_EDGE('',*,*,#271,.F.);
#341=ORIENTED_EDGE('',*,*,#275,.F.);
#342=ORIENTED_EDGE('',*,*,#276,.T.);
#343=ORIENTED_EDGE('',*,*,#277,.T.);
#344=ORIENTED_EDGE('',*,*,#278,.F.);
#345=ORIENTED_EDGE('',*,*,#279,.F.);
#346=ORIENTED_EDGE('',*,*,#280,.T.);
#347=ORIENTED_EDGE('',*,*,#281,.T.);
#348=ORIENTED_EDGE('',*,*,#276,.F.);
#349=ORIENTED_EDGE('',*,*,#282,.F.);
#350=ORIENTED_EDGE('',*,*,#278,.T.);
#351=ORIENTED_EDGE('',*,*,#283,.T.);
#352=ORIENTED_EDGE('',*,*,#280,.F.);
#353=ORIENTED_EDGE('',*,*,#284,.F.);
#354=ORIENTED_EDGE('',*,*,#285,.T.);
#355=ORIENTED_EDGE('',*,*,#286,.T.);
#356=ORIENTED_EDGE('',*,*,#285,.F.);
#357=ORIENTED_EDGE('',*,*,#286,.F.);
#358=ORIENTED_EDGE('',*,*,#283,.F.);
#359=ORIENTED_EDGE('',*,*,#277,.F.);
#360=ORIENTED_EDGE('',*,*,#281,.F.);
#361=ORIENTED_EDGE('',*,*,#274,.F.);
#362=ORIENTED_EDGE('',*,*,#268,.F.);
#363=ORIENTED_EDGE('',*,*,#272,.F.);
#364=ORIENTED_EDGE('',*,*,#265,.F.);
#365=ORIENTED_EDGE('',*,*,#259,.F.);
#366=ORIENTED_EDGE('',*,*,#263,.F.);
#367=ORIENTED_EDGE('',*,*,#256,.F.);
#368=ORIENTED_EDGE('',*,*,#250,.F.);
#369=ORIENTED_EDGE('',*,*,#254,.F.);
#370=ORIENTED_EDGE('',*,*,#287,.T.);
#371=ORIENTED_EDGE('',*,*,#284,.T.);
#372=ORIENTED_EDGE('',*,*,#288,.T.);
#373=ORIENTED_EDGE('',*,*,#275,.T.);
#374=ORIENTED_EDGE('',*,*,#282,.T.);
#375=ORIENTED_EDGE('',*,*,#279,.T.);
#376=ORIENTED_EDGE('',*,*,#266,.T.);
#377=ORIENTED_EDGE('',*,*,#273,.T.);
#378=ORIENTED_EDGE('',*,*,#270,.T.);
#379=ORIENTED_EDGE('',*,*,#257,.T.);
#380=ORIENTED_EDGE('',*,*,#264,.T.);
#381=ORIENTED_EDGE('',*,*,#261,.T.);
#382=ORIENTED_EDGE('',*,*,#289,.F.);
#383=ORIENTED_EDGE('',*,*,#290,.T.);
#384=ORIENTED_EDGE('',*,*,#291,.F.);
#385=ORIENTED_EDGE('',*,*,#290,.F.);
#386=ORIENTED_EDGE('',*,*,#289,.T.);
#387=ORIENTED_EDGE('',*,*,#292,.F.);
#388=ORIENTED_EDGE('',*,*,#293,.T.);
#389=ORIENTED_EDGE('',*,*,#294,.F.);
#390=ORIENTED_EDGE('',*,*,#293,.F.);
#391=ORIENTED_EDGE('',*,*,#292,.T.);
#392=ORIENTED_EDGE('',*,*,#295,.F.);
#393=ORIENTED_EDGE('',*,*,#296,.T.);
#394=ORIENTED_EDGE('',*,*,#297,.T.);
#395=ORIENTED_EDGE('',*,*,#296,.F.);
#396=ORIENTED_EDGE('',*,*,#297,.F.);
#397=ORIENTED_EDGE('',*,*,#291,.T.);
#398=ORIENTED_EDGE('',*,*,#294,.T.);
#399=ORIENTED_EDGE('',*,*,#288,.F.);
#400=ORIENTED_EDGE('',*,*,#298,.T.);
#401=ORIENTED_EDGE('',*,*,#299,.T.);
#402=ORIENTED_EDGE('',*,*,#298,.F.);
#403=ORIENTED_EDGE('',*,*,#299,.F.);
#404=ORIENTED_EDGE('',*,*,#287,.F.);
#405=ORIENTED_EDGE('',*,*,#300,.T.);
#406=ORIENTED_EDGE('',*,*,#301,.T.);
#407=ORIENTED_EDGE('',*,*,#300,.F.);
#408=ORIENTED_EDGE('',*,*,#248,.T.);
#409=ORIENTED_EDGE('',*,*,#255,.T.);
#410=ORIENTED_EDGE('',*,*,#252,.T.);
#411=ORIENTED_EDGE('',*,*,#301,.F.);
#412=ORIENTED_EDGE('',*,*,#295,.T.);
#413=ORIENTED_EDGE('',*,*,#302,.F.);
#414=ORIENTED_EDGE('',*,*,#303,.T.);
#415=ORIENTED_EDGE('',*,*,#304,.T.);
#416=ORIENTED_EDGE('',*,*,#303,.F.);
#417=ORIENTED_EDGE('',*,*,#304,.F.);
#418=ORIENTED_EDGE('',*,*,#302,.T.);
#419=CYLINDRICAL_SURFACE('',#478,0.499999999999999);
#420=CYLINDRICAL_SURFACE('',#484,0.499999999999999);
#421=CYLINDRICAL_SURFACE('',#488,0.499999999999999);
#422=CYLINDRICAL_SURFACE('',#494,0.499999999999999);
#423=CYLINDRICAL_SURFACE('',#498,0.6001532144087);
#424=CYLINDRICAL_SURFACE('',#508,0.3);
#425=CYLINDRICAL_SURFACE('',#512,0.3);
#426=CYLINDRICAL_SURFACE('',#516,4.1);
#427=CYLINDRICAL_SURFACE('',#520,0.9);
#428=CYLINDRICAL_SURFACE('',#523,4.6);
#429=CYLINDRICAL_SURFACE('',#527,0.0762996269445437);
#430=ADVANCED_FACE('',(#45),#419,.T.);
#431=ADVANCED_FACE('',(#46),#24,.F.);
#432=ADVANCED_FACE('',(#47),#25,.F.);
#433=ADVANCED_FACE('',(#48),#26,.F.);
#434=ADVANCED_FACE('',(#49),#420,.T.);
#435=ADVANCED_FACE('',(#50),#27,.F.);
#436=ADVANCED_FACE('',(#51),#421,.T.);
#437=ADVANCED_FACE('',(#52),#28,.F.);
#438=ADVANCED_FACE('',(#53),#29,.F.);
#439=ADVANCED_FACE('',(#54),#30,.F.);
#440=ADVANCED_FACE('',(#55),#422,.T.);
#441=ADVANCED_FACE('',(#56),#31,.F.);
#442=ADVANCED_FACE('',(#57),#423,.F.);
#443=ADVANCED_FACE('',(#58,#15,#16,#17,#18),#32,.T.);
#444=ADVANCED_FACE('',(#59,#19,#20),#33,.T.);
#445=ADVANCED_FACE('',(#60),#34,.T.);
#446=ADVANCED_FACE('',(#61),#35,.T.);
#447=ADVANCED_FACE('',(#62),#36,.T.);
#448=ADVANCED_FACE('',(#63),#424,.T.);
#449=ADVANCED_FACE('',(#64),#37,.T.);
#450=ADVANCED_FACE('',(#65),#425,.T.);
#451=ADVANCED_FACE('',(#66),#38,.T.);
#452=ADVANCED_FACE('',(#67),#426,.F.);
#453=ADVANCED_FACE('',(#68,#21,#22),#39,.F.);
#454=ADVANCED_FACE('',(#69),#427,.F.);
#455=ADVANCED_FACE('',(#70),#40,.T.);
#456=ADVANCED_FACE('',(#71),#428,.T.);
#457=ADVANCED_FACE('',(#72),#41,.T.);
#458=ADVANCED_FACE('',(#73,#23),#42,.F.);
#459=ADVANCED_FACE('',(#74),#429,.F.);
#460=ADVANCED_FACE('',(#75),#43,.F.);
#461=ADVANCED_FACE('',(#76),#44,.T.);
#462=CLOSED_SHELL('',(#430,#431,#432,#433,#434,#435,#436,#437,#438,#439,
#440,#441,#442,#443,#444,#445,#446,#447,#448,#449,#450,#451,#452,#453,#454,
#455,#456,#457,#458));
#463=CLOSED_SHELL('',(#459,#460,#461));
#464=BREP_WITH_VOIDS('Body1',#462,(#14));
#465=DERIVED_UNIT_ELEMENT(#467,1.);
#466=DERIVED_UNIT_ELEMENT(#810,-3.);
#467=(
MASS_UNIT()
NAMED_UNIT(*)
SI_UNIT(.KILO.,.GRAM.)
);
#468=DERIVED_UNIT((#465,#466));
#469=MEASURE_REPRESENTATION_ITEM('density measure',
POSITIVE_RATIO_MEASURE(7850.),#468);
#470=PROPERTY_DEFINITION_REPRESENTATION(#475,#472);
#471=PROPERTY_DEFINITION_REPRESENTATION(#476,#473);
#472=REPRESENTATION('material name',(#474),#807);
#473=REPRESENTATION('density',(#469),#807);
#474=DESCRIPTIVE_REPRESENTATION_ITEM('Steel','Steel');
#475=PROPERTY_DEFINITION('material property','material name',#817);
#476=PROPERTY_DEFINITION('material property','density of part',#817);
#477=AXIS2_PLACEMENT_3D('placement',#677,#532,#533);
#478=AXIS2_PLACEMENT_3D('',#678,#534,#535);
#479=AXIS2_PLACEMENT_3D('',#681,#536,#537);
#480=AXIS2_PLACEMENT_3D('',#685,#539,#540);
#481=AXIS2_PLACEMENT_3D('',#687,#542,#543);
#482=AXIS2_PLACEMENT_3D('',#693,#547,#548);
#483=AXIS2_PLACEMENT_3D('',#696,#551,#552);
#484=AXIS2_PLACEMENT_3D('',#705,#557,#558);
#485=AXIS2_PLACEMENT_3D('',#707,#559,#560);
#486=AXIS2_PLACEMENT_3D('',#710,#562,#563);
#487=AXIS2_PLACEMENT_3D('',#711,#564,#565);
#488=AXIS2_PLACEMENT_3D('',#714,#568,#569);
#489=AXIS2_PLACEMENT_3D('',#717,#570,#571);
#490=AXIS2_PLACEMENT_3D('',#721,#573,#574);
#491=AXIS2_PLACEMENT_3D('',#723,#576,#577);
#492=AXIS2_PLACEMENT_3D('',#729,#581,#582);
#493=AXIS2_PLACEMENT_3D('',#732,#585,#586);
#494=AXIS2_PLACEMENT_3D('',#741,#591,#592);
#495=AXIS2_PLACEMENT_3D('',#743,#593,#594);
#496=AXIS2_PLACEMENT_3D('',#746,#596,#597);
#497=AXIS2_PLACEMENT_3D('',#747,#598,#599);
#498=AXIS2_PLACEMENT_3D('',#750,#602,#603);
#499=AXIS2_PLACEMENT_3D('',#752,#604,#605);
#500=AXIS2_PLACEMENT_3D('',#755,#607,#608);
#501=AXIS2_PLACEMENT_3D('',#756,#609,#610);
#502=AXIS2_PLACEMENT_3D('',#757,#611,#612);
#503=AXIS2_PLACEMENT_3D('',#759,#613,#614);
#504=AXIS2_PLACEMENT_3D('',#761,#615,#616);
#505=AXIS2_PLACEMENT_3D('',#762,#617,#618);
#506=AXIS2_PLACEMENT_3D('',#763,#619,#620);
#507=AXIS2_PLACEMENT_3D('',#764,#621,#622);
#508=AXIS2_PLACEMENT_3D('',#765,#623,#624);
#509=AXIS2_PLACEMENT_3D('',#767,#625,#626);
#510=AXIS2_PLACEMENT_3D('',#770,#628,#629);
#511=AXIS2_PLACEMENT_3D('',#771,#630,#631);
#512=AXIS2_PLACEMENT_3D('',#772,#632,#633);
#513=AXIS2_PLACEMENT_3D('',#774,#634,#635);
#514=AXIS2_PLACEMENT_3D('',#777,#637,#638);
#515=AXIS2_PLACEMENT_3D('',#778,#639,#640);
#516=AXIS2_PLACEMENT_3D('',#779,#641,#642);
#517=AXIS2_PLACEMENT_3D('',#781,#643,#644);
#518=AXIS2_PLACEMENT_3D('',#784,#646,#647);
#519=AXIS2_PLACEMENT_3D('',#785,#648,#649);
#520=AXIS2_PLACEMENT_3D('',#786,#650,#651);
#521=AXIS2_PLACEMENT_3D('',#789,#653,#654);
#522=AXIS2_PLACEMENT_3D('',#790,#655,#656);
#523=AXIS2_PLACEMENT_3D('',#791,#657,#658);
#524=AXIS2_PLACEMENT_3D('',#794,#660,#661);
#525=AXIS2_PLACEMENT_3D('',#795,#662,#663);
#526=AXIS2_PLACEMENT_3D('',#796,#664,#665);
#527=AXIS2_PLACEMENT_3D('',#797,#666,#667);
#528=AXIS2_PLACEMENT_3D('',#799,#668,#669);
#529=AXIS2_PLACEMENT_3D('',#802,#671,#672);
#530=AXIS2_PLACEMENT_3D('',#803,#673,#674);
#531=AXIS2_PLACEMENT_3D('',#804,#675,#676);
#532=DIRECTION('axis',(0.,0.,1.));
#533=DIRECTION('refdir',(1.,0.,0.));
#534=DIRECTION('center_axis',(0.,0.,-1.));
#535=DIRECTION('ref_axis',(-1.,0.,0.));
#536=DIRECTION('center_axis',(0.,0.,1.));
#537=DIRECTION('ref_axis',(-1.,0.,0.));
#538=DIRECTION('',(0.,0.,-1.));
#539=DIRECTION('center_axis',(0.,0.,1.));
#540=DIRECTION('ref_axis',(-1.,0.,0.));
#541=DIRECTION('',(0.,0.,-1.));
#542=DIRECTION('center_axis',(-1.,0.,0.));
#543=DIRECTION('ref_axis',(0.,1.,0.));
#544=DIRECTION('',(0.,1.,0.));
#545=DIRECTION('',(0.,0.,-1.));
#546=DIRECTION('',(0.,1.,0.));
#547=DIRECTION('center_axis',(0.,1.,0.));
#548=DIRECTION('ref_axis',(1.,0.,0.));
#549=DIRECTION('',(1.,0.,0.));
#550=DIRECTION('',(1.,0.,0.));
#551=DIRECTION('center_axis',(1.,0.,0.));
#552=DIRECTION('ref_axis',(0.,-1.,0.));
#553=DIRECTION('',(0.,-1.,0.));
#554=DIRECTION('',(0.,0.,-1.));
#555=DIRECTION('',(0.,-1.,0.));
#556=DIRECTION('',(0.,0.,-1.));
#557=DIRECTION('center_axis',(0.,0.,-1.));
#558=DIRECTION('ref_axis',(-1.,0.,0.));
#559=DIRECTION('center_axis',(0.,0.,1.));
#560=DIRECTION('ref_axis',(-1.,0.,0.));
#561=DIRECTION('',(0.,0.,-1.));
#562=DIRECTION('center_axis',(0.,0.,1.));
#563=DIRECTION('ref_axis',(-1.,0.,0.));
#564=DIRECTION('center_axis',(0.,1.,0.));
#565=DIRECTION('ref_axis',(1.,0.,0.));
#566=DIRECTION('',(1.,0.,0.));
#567=DIRECTION('',(1.,0.,0.));
#568=DIRECTION('center_axis',(0.,0.,-1.));
#569=DIRECTION('ref_axis',(-1.,0.,0.));
#570=DIRECTION('center_axis',(0.,0.,1.));
#571=DIRECTION('ref_axis',(-1.,0.,0.));
#572=DIRECTION('',(0.,0.,-1.));
#573=DIRECTION('center_axis',(0.,0.,1.));
#574=DIRECTION('ref_axis',(-1.,0.,0.));
#575=DIRECTION('',(0.,0.,-1.));
#576=DIRECTION('center_axis',(1.,0.,0.));
#577=DIRECTION('ref_axis',(0.,-1.,0.));
#578=DIRECTION('',(0.,-1.,0.));
#579=DIRECTION('',(0.,0.,-1.));
#580=DIRECTION('',(0.,-1.,0.));
#581=DIRECTION('center_axis',(0.,-1.,0.));
#582=DIRECTION('ref_axis',(-1.,0.,0.));
#583=DIRECTION('',(-1.,0.,0.));
#584=DIRECTION('',(-1.,0.,0.));
#585=DIRECTION('center_axis',(-1.,0.,0.));
#586=DIRECTION('ref_axis',(0.,1.,0.));
#587=DIRECTION('',(0.,1.,0.));
#588=DIRECTION('',(0.,0.,-1.));
#589=DIRECTION('',(0.,1.,0.));
#590=DIRECTION('',(0.,0.,-1.));
#591=DIRECTION('center_axis',(0.,0.,-1.));
#592=DIRECTION('ref_axis',(-1.,0.,0.));
#593=DIRECTION('center_axis',(0.,0.,1.));
#594=DIRECTION('ref_axis',(-1.,0.,0.));
#595=DIRECTION('',(0.,0.,-1.));
#596=DIRECTION('center_axis',(0.,0.,1.));
#597=DIRECTION('ref_axis',(-1.,0.,0.));
#598=DIRECTION('center_axis',(0.,-1.,0.));
#599=DIRECTION('ref_axis',(-1.,0.,0.));
#600=DIRECTION('',(-1.,0.,0.));
#601=DIRECTION('',(-1.,0.,0.));
#602=DIRECTION('center_axis',(0.,0.,-1.));
#603=DIRECTION('ref_axis',(-1.,0.,0.));
#604=DIRECTION('center_axis',(0.,0.,-1.));
#605=DIRECTION('ref_axis',(-1.,0.,0.));
#606=DIRECTION('',(0.,0.,-1.));
#607=DIRECTION('center_axis',(0.,0.,-1.));
#608=DIRECTION('ref_axis',(-1.,0.,0.));
#609=DIRECTION('center_axis',(0.,0.,1.));
#610=DIRECTION('ref_axis',(-1.,0.,0.));
#611=DIRECTION('center_axis',(0.,0.,1.));
#612=DIRECTION('ref_axis',(1.,0.,0.));
#613=DIRECTION('center_axis',(0.,0.,1.));
#614=DIRECTION('ref_axis',(1.,0.,0.));
#615=DIRECTION('center_axis',(0.,0.,-1.));
#616=DIRECTION('ref_axis',(-1.,0.,0.));
#617=DIRECTION('center_axis',(0.,0.,1.));
#618=DIRECTION('ref_axis',(1.,0.,0.));
#619=DIRECTION('center_axis',(0.,0.,1.));
#620=DIRECTION('ref_axis',(1.,0.,0.));
#621=DIRECTION('center_axis',(0.,0.,1.));
#622=DIRECTION('ref_axis',(1.,0.,0.));
#623=DIRECTION('center_axis',(0.,0.,-1.));
#624=DIRECTION('ref_axis',(-1.,1.22464679914735E-16,0.));
#625=DIRECTION('center_axis',(0.,0.,-1.));
#626=DIRECTION('ref_axis',(-1.,1.22464679914735E-16,0.));
#627=DIRECTION('',(0.,0.,1.));
#628=DIRECTION('center_axis',(0.,0.,1.));
#629=DIRECTION('ref_axis',(-1.,1.22464679914735E-16,0.));
#630=DIRECTION('center_axis',(0.,0.,-1.));
#631=DIRECTION('ref_axis',(-1.,1.22464679914735E-16,0.));
#632=DIRECTION('center_axis',(0.,0.,-1.));
#633=DIRECTION('ref_axis',(1.,0.,0.));
#634=DIRECTION('center_axis',(0.,0.,-1.));
#635=DIRECTION('ref_axis',(1.,0.,0.));
#636=DIRECTION('',(0.,0.,1.));
#637=DIRECTION('center_axis',(0.,0.,1.));
#638=DIRECTION('ref_axis',(1.,0.,0.));
#639=DIRECTION('center_axis',(0.,0.,-1.));
#640=DIRECTION('ref_axis',(1.,0.,0.));
#641=DIRECTION('center_axis',(0.,0.,1.));
#642=DIRECTION('ref_axis',(1.,0.,0.));
#643=DIRECTION('center_axis',(0.,0.,1.));
#644=DIRECTION('ref_axis',(1.,0.,0.));
#645=DIRECTION('',(0.,0.,1.));
#646=DIRECTION('center_axis',(0.,0.,1.));
#647=DIRECTION('ref_axis',(1.,0.,0.));
#648=DIRECTION('center_axis',(0.,0.,1.));
#649=DIRECTION('ref_axis',(1.,0.,0.));
#650=DIRECTION('center_axis',(0.,0.,-1.));
#651=DIRECTION('ref_axis',(-1.,0.,0.));
#652=DIRECTION('',(0.,0.,-1.));
#653=DIRECTION('center_axis',(0.,0.,-1.));
#654=DIRECTION('ref_axis',(-1.,0.,0.));
#655=DIRECTION('center_axis',(0.,0.,1.));
#656=DIRECTION('ref_axis',(-1.,0.,0.));
#657=DIRECTION('center_axis',(0.,0.,1.));
#658=DIRECTION('ref_axis',(1.,0.,0.));
#659=DIRECTION('',(0.,0.,-1.));
#660=DIRECTION('center_axis',(0.,0.,1.));
#661=DIRECTION('ref_axis',(1.,0.,0.));
#662=DIRECTION('center_axis',(0.,0.,1.));
#663=DIRECTION('ref_axis',(1.,0.,0.));
#664=DIRECTION('center_axis',(0.,0.,1.));
#665=DIRECTION('ref_axis',(1.,0.,0.));
#666=DIRECTION('center_axis',(-0.358367949545301,0.933580426497202,0.));
#667=DIRECTION('ref_axis',(0.,0.,1.));
#668=DIRECTION('center_axis',(-0.3583679495453,0.933580426497202,0.));
#669=DIRECTION('ref_axis',(0.,0.,1.));
#670=DIRECTION('',(-0.358367949545301,0.933580426497202,0.));
#671=DIRECTION('center_axis',(-0.3583679495453,0.933580426497202,0.));
#672=DIRECTION('ref_axis',(0.,0.,1.));
#673=DIRECTION('center_axis',(-0.3583679495453,0.933580426497202,0.));
#674=DIRECTION('ref_axis',(0.,0.,1.));
#675=DIRECTION('center_axis',(-0.3583679495453,0.933580426497202,0.));
#676=DIRECTION('ref_axis',(0.,0.,1.));
#677=CARTESIAN_POINT('',(0.,0.,0.));
#678=CARTESIAN_POINT('Origin',(9.15825877670873E-16,-3.47991455121344,5.5));
#679=CARTESIAN_POINT('',(-0.125,-2.99579163293751,5.5));
#680=CARTESIAN_POINT('',(-0.484122918275925,-3.35491455121344,5.5));
#681=CARTESIAN_POINT('Origin',(9.15825877670873E-16,-3.47991455121344,5.5));
#682=CARTESIAN_POINT('',(-0.124999999999999,-2.99579163293751,5.4));
#683=CARTESIAN_POINT('',(-0.125,-2.99579163293751,5.5));
#684=CARTESIAN_POINT('',(-0.484122918275925,-3.35491455121344,5.4));
#685=CARTESIAN_POINT('Origin',(9.15825877670873E-16,-3.47991455121344,5.4));
#686=CARTESIAN_POINT('',(-0.484122918275925,-3.35491455121344,5.5));
#687=CARTESIAN_POINT('Origin',(-0.124999999999999,-3.35491455121344,5.5));
#688=CARTESIAN_POINT('',(-0.124999999999999,-3.35491455121344,5.5));
#689=CARTESIAN_POINT('',(-0.124999999999999,-1.67745727560672,5.5));
#690=CARTESIAN_POINT('',(-0.124999999999999,-3.35491455121344,5.4));
#691=CARTESIAN_POINT('',(-0.124999999999999,-3.35491455121344,5.5));
#692=CARTESIAN_POINT('',(-0.124999999999999,-3.97991455121344,5.4));
#693=CARTESIAN_POINT('Origin',(-0.484122918275925,-3.35491455121344,5.5));
#694=CARTESIAN_POINT('',(-0.242061459137962,-3.35491455121344,5.5));
#695=CARTESIAN_POINT('',(-0.499999999999999,-3.35491455121344,5.4));
#696=CARTESIAN_POINT('Origin',(0.125000000000001,-2.99579163293751,5.5));
#697=CARTESIAN_POINT('',(0.125000000000001,-2.99579163293751,5.5));
#698=CARTESIAN_POINT('',(0.125000000000001,-3.35491455121344,5.5));
#699=CARTESIAN_POINT('',(0.125000000000001,-1.49789581646876,5.5));
#700=CARTESIAN_POINT('',(0.125000000000001,-2.99579163293751,5.4));
#701=CARTESIAN_POINT('',(0.125000000000001,-2.99579163293751,5.5));
#702=CARTESIAN_POINT('',(0.125000000000001,-3.35491455121344,5.4));
#703=CARTESIAN_POINT('',(0.125000000000001,-2.97991455121344,5.4));
#704=CARTESIAN_POINT('',(0.125000000000001,-3.35491455121344,5.5));
#705=CARTESIAN_POINT('Origin',(9.15825877670873E-16,-3.47991455121344,5.5));
#706=CARTESIAN_POINT('',(0.484122918275927,-3.35491455121344,5.5));
#707=CARTESIAN_POINT('Origin',(9.15825877670873E-16,-3.47991455121344,5.5));
#708=CARTESIAN_POINT('',(0.484122918275927,-3.35491455121344,5.4));
#709=CARTESIAN_POINT('',(0.484122918275927,-3.35491455121344,5.5));
#710=CARTESIAN_POINT('Origin',(9.15825877670873E-16,-3.47991455121344,5.4));
#711=CARTESIAN_POINT('Origin',(0.125000000000001,-3.35491455121344,5.5));
#712=CARTESIAN_POINT('',(0.0625000000000003,-3.35491455121344,5.5));
#713=CARTESIAN_POINT('',(-0.499999999999999,-3.35491455121344,5.4));
#714=CARTESIAN_POINT('Origin',(9.15825877670873E-16,-3.47991455121344,5.5));
#715=CARTESIAN_POINT('',(0.125000000000001,-3.96403746948937,5.5));
#716=CARTESIAN_POINT('',(0.484122918275927,-3.60491455121344,5.5));
#717=CARTESIAN_POINT('Origin',(9.15825877670873E-16,-3.47991455121344,5.5));
#718=CARTESIAN_POINT('',(0.125000000000001,-3.96403746948937,5.4));
#719=CARTESIAN_POINT('',(0.125000000000001,-3.96403746948937,5.5));
#720=CARTESIAN_POINT('',(0.484122918275927,-3.60491455121344,5.4));
#721=CARTESIAN_POINT('Origin',(9.15825877670873E-16,-3.47991455121344,5.4));
#722=CARTESIAN_POINT('',(0.484122918275927,-3.60491455121344,5.5));
#723=CARTESIAN_POINT('Origin',(0.125000000000001,-3.60491455121344,5.5));
#724=CARTESIAN_POINT('',(0.125000000000001,-3.60491455121344,5.5));
#725=CARTESIAN_POINT('',(0.125000000000001,-1.80245727560672,5.5));
#726=CARTESIAN_POINT('',(0.125000000000001,-3.60491455121344,5.4));
#727=CARTESIAN_POINT('',(0.125000000000001,-3.60491455121344,5.5));
#728=CARTESIAN_POINT('',(0.125000000000001,-2.97991455121344,5.4));
#729=CARTESIAN_POINT('Origin',(0.484122918275927,-3.60491455121344,5.5));
#730=CARTESIAN_POINT('',(0.242061459137963,-3.60491455121344,5.5));
#731=CARTESIAN_POINT('',(0.500000000000001,-3.60491455121344,5.4));
#732=CARTESIAN_POINT('Origin',(-0.124999999999999,-3.96403746948937,5.5));
#733=CARTESIAN_POINT('',(-0.125,-3.96403746948937,5.5));
#734=CARTESIAN_POINT('',(-0.124999999999999,-3.60491455121344,5.5));
#735=CARTESIAN_POINT('',(-0.124999999999999,-1.98201873474468,5.5));
#736=CARTESIAN_POINT('',(-0.124999999999999,-3.96403746948937,5.4));
#737=CARTESIAN_POINT('',(-0.125,-3.96403746948937,5.5));
#738=CARTESIAN_POINT('',(-0.124999999999999,-3.60491455121344,5.4));
#739=CARTESIAN_POINT('',(-0.124999999999999,-3.97991455121344,5.4));
#740=CARTESIAN_POINT('',(-0.124999999999999,-3.60491455121344,5.5));
#741=CARTESIAN_POINT('Origin',(9.15825877670873E-16,-3.47991455121344,5.5));
#742=CARTESIAN_POINT('',(-0.484122918275925,-3.60491455121344,5.5));
#743=CARTESIAN_POINT('Origin',(9.15825877670873E-16,-3.47991455121344,5.5));
#744=CARTESIAN_POINT('',(-0.484122918275925,-3.60491455121344,5.4));
#745=CARTESIAN_POINT('',(-0.484122918275925,-3.60491455121344,5.5));
#746=CARTESIAN_POINT('Origin',(9.15825877670873E-16,-3.47991455121344,5.4));
#747=CARTESIAN_POINT('Origin',(-0.124999999999999,-3.60491455121344,5.5));
#748=CARTESIAN_POINT('',(-0.0624999999999997,-3.60491455121344,5.5));
#749=CARTESIAN_POINT('',(0.500000000000001,-3.60491455121344,5.4));
#750=CARTESIAN_POINT('Origin',(9.15825877670873E-16,-3.47991455121344,5.5));
#751=CARTESIAN_POINT('',(0.600153214408701,-3.47991455121344,5.5));
#752=CARTESIAN_POINT('Origin',(9.15825877670873E-16,-3.47991455121344,5.5));
#753=CARTESIAN_POINT('',(0.600153214408701,-3.47991455121344,5.4));
#754=CARTESIAN_POINT('',(0.600153214408701,-3.47991455121344,5.5));
#755=CARTESIAN_POINT('Origin',(9.15825877670873E-16,-3.47991455121344,5.4));
#756=CARTESIAN_POINT('Origin',(9.0205620750794E-16,-3.47991455121344,5.4));
#757=CARTESIAN_POINT('Origin',(0.,0.,5.5));
#758=CARTESIAN_POINT('',(-4.6,-5.63337527607783E-16,5.5));
#759=CARTESIAN_POINT('Origin',(0.,0.,5.5));
#760=CARTESIAN_POINT('',(0.9,1.10218211923262E-16,5.5));
#761=CARTESIAN_POINT('Origin',(0.,0.,5.5));
#762=CARTESIAN_POINT('Origin',(0.,0.,5.5));
#763=CARTESIAN_POINT('Origin',(0.,0.,5.5));
#764=CARTESIAN_POINT('Origin',(0.,0.,5.5));
#765=CARTESIAN_POINT('Origin',(3.06161699786838E-16,2.5,0.25));
#766=CARTESIAN_POINT('',(0.3,2.5,-4.));
#767=CARTESIAN_POINT('Origin',(3.06161699786838E-16,2.5,-4.));
#768=CARTESIAN_POINT('',(0.3,2.5,0.25));
#769=CARTESIAN_POINT('',(0.3,2.5,0.25));
#770=CARTESIAN_POINT('Origin',(3.06161699786838E-16,2.5,0.25));
#771=CARTESIAN_POINT('Origin',(3.06161699786838E-16,2.5,-4.));
#772=CARTESIAN_POINT('Origin',(0.,-2.5,0.25));
#773=CARTESIAN_POINT('',(-0.3,-2.5,-5.5));
#774=CARTESIAN_POINT('Origin',(0.,-2.5,-5.5));
#775=CARTESIAN_POINT('',(-0.3,-2.5,0.25));
#776=CARTESIAN_POINT('',(-0.3,-2.5,0.25));
#777=CARTESIAN_POINT('Origin',(0.,-2.5,0.25));
#778=CARTESIAN_POINT('Origin',(0.,-2.5,-5.5));
#779=CARTESIAN_POINT('Origin',(0.,0.,0.));
#780=CARTESIAN_POINT('',(-4.1,-5.02105187650415E-16,0.));
#781=CARTESIAN_POINT('Origin',(0.,0.,0.));
#782=CARTESIAN_POINT('',(-4.1,-5.02105187650415E-16,0.25));
#783=CARTESIAN_POINT('',(-4.1,-5.02105187650415E-16,0.));
#784=CARTESIAN_POINT('Origin',(0.,0.,0.25));
#785=CARTESIAN_POINT('Origin',(0.,0.,0.25));
#786=CARTESIAN_POINT('Origin',(0.,0.,5.5));
#787=CARTESIAN_POINT('',(0.9,1.10218211923262E-16,3.5));
#788=CARTESIAN_POINT('',(0.9,-1.10218211923262E-16,5.5));
#789=CARTESIAN_POINT('Origin',(0.,0.,3.5));
#790=CARTESIAN_POINT('Origin',(0.,0.,3.5));
#791=CARTESIAN_POINT('Origin',(0.,0.,0.));
#792=CARTESIAN_POINT('',(-4.6,-5.63337527607783E-16,0.));
#793=CARTESIAN_POINT('',(-4.6,-5.63337527607783E-16,0.));
#794=CARTESIAN_POINT('Origin',(0.,0.,0.));
#795=CARTESIAN_POINT('Origin',(0.,0.,5.5));
#796=CARTESIAN_POINT('Origin',(0.,0.,0.));
#797=CARTESIAN_POINT('Origin',(-3.14757512667613,-1.20824088870301,3.29833114086353));
#798=CARTESIAN_POINT('',(-3.14757512667613,-1.20824088870301,3.22203151391898));
#799=CARTESIAN_POINT('Origin',(-3.14757512667613,-1.20824088870301,3.29833114086353));
#800=CARTESIAN_POINT('',(-3.32675910144878,-0.741450675454408,3.22203151391898));
#801=CARTESIAN_POINT('',(-3.14757512667613,-1.20824088870301,3.22203151391898));
#802=CARTESIAN_POINT('Origin',(-3.32675910144878,-0.741450675454407,3.29833114086353));
#803=CARTESIAN_POINT('Origin',(-3.32675910144878,-0.741450675454407,3.29833114086353));
#804=CARTESIAN_POINT('Origin',(-3.14757512667613,-1.20824088870301,3.29833114086353));
#805=UNCERTAINTY_MEASURE_WITH_UNIT(LENGTH_MEASURE(0.01),#809,
'DISTANCE_ACCURACY_VALUE',
'Maximum model space distance between geometric entities at asserted c
onnectivities');
#806=UNCERTAINTY_MEASURE_WITH_UNIT(LENGTH_MEASURE(0.01),#809,
'DISTANCE_ACCURACY_VALUE',
'Maximum model space distance between geometric entities at asserted c
onnectivities');
#807=(
GEOMETRIC_REPRESENTATION_CONTEXT(3)
GLOBAL_UNCERTAINTY_ASSIGNED_CONTEXT((#805))
GLOBAL_UNIT_ASSIGNED_CONTEXT((#809,#811,#812))
REPRESENTATION_CONTEXT('','3D')
);
#808=(
GEOMETRIC_REPRESENTATION_CONTEXT(3)
GLOBAL_UNCERTAINTY_ASSIGNED_CONTEXT((#806))
GLOBAL_UNIT_ASSIGNED_CONTEXT((#809,#811,#812))
REPRESENTATION_CONTEXT('','3D')
);
#809=(
LENGTH_UNIT()
NAMED_UNIT(*)
SI_UNIT(.MILLI.,.METRE.)
);
#810=(
LENGTH_UNIT()
NAMED_UNIT(*)
SI_UNIT($,.METRE.)
);
#811=(
NAMED_UNIT(*)
PLANE_ANGLE_UNIT()
SI_UNIT($,.RADIAN.)
);
#812=(
NAMED_UNIT(*)
SI_UNIT($,.STERADIAN.)
SOLID_ANGLE_UNIT()
);
#813=SHAPE_DEFINITION_REPRESENTATION(#814,#815);
#814=PRODUCT_DEFINITION_SHAPE('',$,#817);
#815=SHAPE_REPRESENTATION('',(#477),#807);
#816=PRODUCT_DEFINITION_CONTEXT('part definition',#821,'design');
#817=PRODUCT_DEFINITION('WST-0906T','WST-0906T v2',#818,#816);
#818=PRODUCT_DEFINITION_FORMATION('',$,#823);
#819=PRODUCT_RELATED_PRODUCT_CATEGORY('WST-0906T v2','WST-0906T v2',(#823));
#820=APPLICATION_PROTOCOL_DEFINITION('international standard',
'automotive_design',2009,#821);
#821=APPLICATION_CONTEXT(
'Core Data for Automotive Mechanical Design Process');
#822=PRODUCT_CONTEXT('part definition',#821,'mechanical');
#823=PRODUCT('WST-0906T','WST-0906T v2',$,(#822));
#824=PRESENTATION_STYLE_ASSIGNMENT((#825));
#825=SURFACE_STYLE_USAGE(.BOTH.,#826);
#826=SURFACE_SIDE_STYLE('',(#827));
#827=SURFACE_STYLE_FILL_AREA(#828);
#828=FILL_AREA_STYLE('Steel - Satin',(#829));
#829=FILL_AREA_STYLE_COLOUR('Steel - Satin',#830);
#830=COLOUR_RGB('Steel - Satin',0.627450980392157,0.627450980392157,0.627450980392157);
ENDSEC;
END-ISO-10303-21;
